# xmcd
#
# Track frame offsets:
#	150
#	26812
#	40465
#	56459
#	71997
#	91061
#	100957
#	119118
#	136184
#	173941
#	211669
#	227904
#	240051
#	254112
#	278027
#	290591
#	318554
#
# Disc length: 4361 seconds
#
# Revision: 2
# Processed by: cddbd v1.4b42PL1 Copyright (c) Steve Scherf et al.
# Submitted via: EZCDDA 4.3.2
#
DISCID=01110711
DTITLE=Mississippi Fred Mcdowell - 61 highway
DYEAR=1900
DGENRE=
TTITLE0=Mississippi Fred Mcdowell - 61 Highway
TTITLE1=Mississippi Fred Mcdowell - Been Drinkin' Water Out of a Hollow Log
TTITLE2=Mississippi Fred Mcdowell - Big Fat Mama
TTITLE3=Mississippi Fred Mcdowell - Come on in1
TTITLE4=Mississippi Fred Mcdowell - Fred McDowell's Blues
TTITLE5=Mississippi Fred Mcdowell - Fred's Rambling Blues (live)
TTITLE6=Mississippi Fred Mcdowell - Germany Blues
TTITLE7=Mississippi Fred Mcdowell - Get Right Church
TTITLE8=Mississippi Fred Mcdowell - Goin' Down To Louisiana
TTITLE9=Mississippi Fred Mcdowell - Goin' Down To The River
TTITLE10=Mississippi Fred Mcdowell - Good Morning Little Schoolgirl
TTITLE11=Mississippi Fred Mcdowell - I Wished I Were In Heaven Sitt
TTITLE12=Mississippi Fred Mcdowell - I'm So Glad I Got Good Religion
TTITLE13=Mississippi Fred Mcdowell - John Henry
TTITLE14=Mississippi Fred Mcdowell - Keep Your Lamps Trimmed And Burning
TTITLE15=Mississippi Fred Mcdowell - Levee Camp Blues
TTITLE16=Mississippi Fred Mcdowell - Lord Have Mercy
EXTD=
EXTT0=
EXTT1=
EXTT2=
EXTT3=
EXTT4=
EXTT5=
EXTT6=
EXTT7=
EXTT8=
EXTT9=
EXTT10=
EXTT11=
EXTT12=
EXTT13=
EXTT14=
EXTT15=
EXTT16=
PLAYORDER=
